<?xml version="1.0" encoding="iso-8859-1"?>
<!-- Generator: Adobe Illustrator 18.1.1, SVG Export Plug-In . SVG Version: 6.00 Build 0)  -->
<svg version="1.1" id="Capa_1" xmlns="http://www.w3.org/2000/svg" xmlns:xlink="http://www.w3.org/1999/xlink" x="0px" y="0px"
	 viewBox="0 0 205.861 205.861" style="enable-background:new 0 0 205.861 205.861;" xml:space="preserve">
<g>
	<path style="fill:#F8B64C;" d="M173.997,54.318c-1.024-4.678-4.892-7.934-8.199-8.725c-2.387-0.576-4.699,0.086-6.066,1.743
		c-6.045,7.376-11.828,21.101-16.924,33.215c-2.673,6.349-5.952,14.122-8.056,17.458c-0.719-9.577,5.468-45.562,7.859-59.463
		l0.021-0.122c1.822-10.55,2.169-12.694,2.097-13.557c-0.462-5.404-2.348-9.051-5.594-10.847c-3.293-1.818-7.748-1.428-12.701,1.117
		c-2.448,1.263-3.536,6.177-7.53,28.541c-2.033,11.381-7.333,41.035-10.983,45.591c-2.57-6.746-2.831-41.901-2.945-57.172
		c-0.1-13.392-0.179-21.083-0.68-23.323c-0.963-4.363-5.447-8.188-10.207-8.704c-3.944-0.465-7.261,1.403-9.205,5.136
		C81.53,8.452,80.997,20.52,80.578,47.15c-0.208,13.195-0.63,40.405-3.178,43.272c-2.097-1.056-5.987-11.635-12.78-54.617
		c-2.036-12.884-2.595-16.033-3.353-17.311c-1.342-4.574-6.71-10.958-12.404-10.958c-0.136,0-0.279,0.004-0.422,0.014
		c-3.794,0.225-8.553,3.375-9.767,17.114c4.037,53.06,7.959,83.402,8.768,89.332c-3.157,3.926-6.918,8.346-6.939,8.378
		c-13.621,15.049-7.211,26.201-6.936,26.666c10.822,18.939,32.693,43.49,32.918,43.723c2.995,2.573,4.606,4.975,4.645,6.939
		c0.029,1.335-0.737,2.065-0.752,2.079l-0.523,0.523l3.157,3.557l0.591-0.523c0.39-0.347,2.341-2.255,2.33-5.604
		c-0.021-3.418-2.147-7.036-6.123-10.422c-2.24-2.537-22.16-25.302-32.099-42.699c-0.05-0.086-4.799-8.704,6.403-21.083l0.122-0.147
		c1.718-2.029,4.996-5.934,7.594-9.205l0.641-0.798l-0.14-1.031c-0.039-0.265-4.381-30.996-8.872-89.654
		c0.687-7.465,2.709-12.204,5.282-12.361c0.068-0.004,0.129-0.007,0.197-0.007c3.114,0,7.204,4.975,7.816,7.863l0.347,1.607
		l0.268,0.039c0.587,2.505,1.582,8.815,2.466,14.408l0.05,0.301c6.31,39.983,10.3,57.949,17.239,58.722
		c1.092,0.125,2.169-0.229,3.067-1.013c4.205-3.711,4.76-20.246,5.182-47.033v-0.093c0.2-12.805,0.573-36.644,2.609-38.304
		l0.673-0.383l0.319-0.694c0.902-1.95,2.262-2.942,4.019-2.942c0.193,0,0.387,0.011,0.569,0.032
		c2.745,0.297,5.515,2.573,6.045,4.971c0.412,1.882,0.49,11.81,0.569,22.328c0.379,50.766,1.732,62.429,7.233,62.429
		c6.22,0,9.502-12.505,16.23-50.107c1.646-9.255,4.137-23.173,5.175-25.149c3.325-1.668,6.216-2.069,7.988-1.088
		c2.187,1.21,2.91,4.445,3.135,6.914c-0.011,0.741-1.131,7.236-1.954,11.989l-0.079,0.49c-8.099,46.958-9.57,62.272-6.302,65.529
		c0.837,0.834,1.872,1.195,3.092,0.977c3.393-0.666,5.998-6.188,12.583-21.827c4.946-11.76,10.558-25.088,16.162-31.913
		c0.19-0.222,0.641-0.265,1.238-0.125c1.782,0.429,3.965,2.312,4.574,4.728c-0.315,2.695-7.408,24.064-12.594,39.704l-0.208,0.619
		c-6.324,19.054-9.108,27.568-9.262,29.128l-0.007,0.347l0.014,0.165c0.19,1.61,4.359,39.836-9.634,66.649l-3.754,12.691
		l4.602,1.353l3.575-12.254c14.169-27.049,10.518-64.215,10.021-68.671c0.537-2.409,5.182-16.402,8.922-27.661l0.075-0.243
		C172.433,62.389,174.373,56.033,173.997,54.318z"/>
</g>
<g>
</g>
<g>
</g>
<g>
</g>
<g>
</g>
<g>
</g>
<g>
</g>
<g>
</g>
<g>
</g>
<g>
</g>
<g>
</g>
<g>
</g>
<g>
</g>
<g>
</g>
<g>
</g>
<g>
</g>
</svg>
