<svg
  height="512pt"
  viewBox="0 -65 512.00078 512"
  width="512pt"
  xmlns="http://www.w3.org/2000/svg"
>
  <path
    d="m429.578125 370.679688c-4.183594-11.445313-14.894531-20.71875-28.738281-23.351563-13.847656-2.628906-27.210938 2.070313-35.304688 11.183594 4.1875 11.445312 14.894532 20.71875 28.742188 23.351562 13.84375 2.628907 27.207031-2.070312 35.300781-11.183593zm0 0"
    fill="#00ad94"
  />
  <path
    d="m377.707031 294.46875c-11.445312 4.183594-20.71875 14.894531-23.351562 28.738281-2.632813 13.847657 2.066406 27.210938 11.179687 35.304688 11.449219-4.1875 20.722656-14.894531 23.351563-28.738281 2.632812-13.847657-2.066407-27.210938-11.179688-35.304688zm0 0"
    fill="#3ac7b4"
  />
  <path
    d="m488.589844 289.777344c-9.46875-7.671875-23.421875-10.125-36.652344-5.265625-13.230469 4.855469-22.28125 15.753906-24.539062 27.730469 9.472656 7.667968 23.425781 10.125 36.652343 5.265624 13.234375-4.855468 22.28125-15.753906 24.539063-27.730468zm0 0"
    fill="#00ad94"
  />
  <path
    d="m404.929688 251.050781c-7.667969 9.472657-10.121094 23.425781-5.261719 36.652344 4.855469 13.230469 15.753906 22.28125 27.730469 24.539063 7.671874-9.46875 10.125-23.421876 5.265624-36.652344-4.855468-13.230469-15.757812-22.28125-27.734374-24.539063zm0 0"
    fill="#3ac7b4"
  />
  <path
    d="m508.71875 183.800781c-12.171875-.625-24.894531 5.605469-32.730469 17.320313-7.835937 11.714844-8.734375 25.851562-3.511719 36.863281 12.171876.625 24.894532-5.605469 32.730469-17.320313 7.835938-11.714843 8.734375-25.851562 3.511719-36.863281zm0 0"
    fill="#00ad94"
  />
  <path
    d="m418.292969 201.742188c-.625 12.171874 5.605469 24.894531 17.320312 32.730468 11.714844 7.835938 25.851563 8.734375 36.863281 3.511719.625-12.171875-5.605468-24.894531-17.320312-32.730469-11.714844-7.835937-25.851562-8.734375-36.863281-3.511718zm0 0"
    fill="#3ac7b4"
  />
  <path
    d="m490.175781 84.882812c-11.222656 4.753907-19.945312 15.914063-21.878906 29.875-1.9375 13.960938 3.429687 27.074219 12.9375 34.695313 11.222656-4.753906 19.945313-15.910156 21.878906-29.871094 1.933594-13.960937-3.429687-27.074219-12.9375-34.699219zm0 0"
    fill="#00ad94"
  />
  <path
    d="m416.664062 140.511719c4.753907 11.222656 15.914063 19.949219 29.875 21.882812 13.960938 1.933594 27.070313-3.433593 34.695313-12.941406-4.753906-11.21875-15.914063-19.945313-29.875-21.878906-13.960937-1.933594-27.070313 3.429687-34.695313 12.9375zm0 0"
    fill="#3ac7b4"
  />
  <path
    d="m445.613281 0c-9.128906 8.074219-13.855469 21.429688-11.25 35.28125s11.855469 24.574219 23.296875 28.785156c9.128906-8.074218 13.855469-21.429687 11.25-35.28125-2.605468-13.851562-11.859375-24.578125-23.296875-28.785156zm0 0"
    fill="#00ad94"
  />
  <path
    d="m393.59375 76.109375c8.074219 9.128906 21.429688 13.855469 35.277344 11.25 13.851562-2.601563 24.578125-11.855469 28.789062-23.292969-8.074218-9.128906-21.429687-13.855468-35.28125-11.253906-13.851562 2.605469-24.578125 11.859375-28.785156 23.296875zm0 0"
    fill="#3ac7b4"
  />

</svg>
